<?xml version='1.0' encoding='UTF-8'?>
<svg xmlns="http://www.w3.org/2000/svg" xmlns:xlink="http://www.w3.org/1999/xlink" version="1.1" width="17.23134" height="18.2696" viewBox="0 0 17.217010000000045 18.163080000000036"><g><g fill="#000000" stroke="none" stroke-width="0.5" stroke-miterlimit="10"><path d="M 9.626230000000021,6.232280000000003 C 9.379130000000032,6.270299999999992 9.341130000000021,6.023200000000003 9.341130000000021,6.023200000000003 L 9.291110000000032,5.696280000000002 C 9.282700000000034,5.554949999999991 9.274290000000036,5.413630000000012 9.265890000000041,5.272300000000001 C 9.265890000000041,5.272300000000001 9.26284000000004,5.220429999999993 9.283170000000041,5.1625899999999945 C 9.014020000000045,5.1719699999999875 8.746120000000047,5.192639999999983 8.469130000000035,5.215720000000005 C 8.469130000000035,5.215720000000005 8.219990000000024,5.23648 8.199230000000028,4.987349999999992 C 8.178470000000033,4.738219999999984 8.42760000000004,4.717459999999988 8.42760000000004,4.717459999999988 C 8.957210000000032,4.673329999999993 9.457770000000039,4.639019999999988 9.990120000000047,4.668479999999988 L 10.097510000000057,4.668089999999978 C 10.097510000000057,4.668089999999978 10.347510000000057,4.668089999999978 10.347510000000057,4.918089999999978 C 10.347510000000057,5.168089999999978 10.097510000000057,5.168089999999978 10.097510000000057,5.168089999999978 L 9.962380000000053,5.167709999999971 C 9.889350000000064,5.1636299999999835 9.816990000000061,5.160839999999979 9.745130000000046,5.159189999999967 C 9.762780000000049,5.204789999999974 9.765030000000053,5.242949999999979 9.765030000000053,5.242949999999979 C 9.772800000000046,5.376479999999987 9.780550000000062,5.510019999999969 9.788320000000056,5.643549999999976 L 9.83531000000005,5.947189999999978 C 9.83531000000005,5.947189999999978 9.873330000000038,6.194279999999964 9.62623000000005,6.232299999999981 L 9.626230000000021,6.232280000000003"/><path d="M 10.725010000000026,7.196879999999993 C 10.65318000000002,7.436329999999998 10.413720000000012,7.3644999999999925 10.413720000000012,7.3644999999999925 L 10.171190000000024,7.291740000000004 C 10.171190000000024,7.291740000000004 9.931740000000019,7.219909999999999 10.003570000000025,6.9804499999999905 C 10.07540000000003,6.7409999999999854 10.314870000000013,6.812829999999991 10.314870000000013,6.812829999999991 L 10.557390000000026,6.885589999999979 C 10.557390000000026,6.885589999999979 10.796840000000032,6.957429999999988 10.725010000000026,7.196889999999968 L 10.725010000000026,7.196879999999993"/><path d="M 7.446620000000024,12.561610000000002 C 7.200020000000023,12.602710000000002 7.158920000000023,12.356110000000001 7.158920000000023,12.356110000000001 L 7.134030000000024,12.206580000000002 C 7.094020000000029,11.93732 7.059120000000036,11.665639999999996 7.0585100000000125,11.393419999999992 C 7.0585100000000125,11.393419999999992 7.0585100000000125,11.143419999999992 7.3085100000000125,11.143419999999992 C 7.5585100000000125,11.143419999999992 7.5585100000000125,11.393419999999992 7.5585100000000125,11.393419999999992 C 7.5578800000000115,11.64085 7.591440000000006,11.887769999999989 7.6285000000000025,12.132409999999993 L 7.6521199999999965,12.27391 C 7.6521199999999965,12.27391 7.693219999999997,12.520510000000002 7.446619999999996,12.561610000000002 L 7.446620000000024,12.561610000000002"/><path d="M 10.132110000000011,1.8690799999999967 C 9.89494000000002,1.948139999999995 9.815880000000021,1.71096 9.815880000000021,1.71096 L 9.851060000000018,1.683729999999997 C 9.655400000000014,1.5269099999999867 9.501950000000022,1.317479999999989 9.375200000000007,1.1011299999999835 C 9.375200000000007,1.1011299999999835 9.251170000000002,0.8840699999999799 9.468230000000005,0.760029999999972 C 9.685290000000009,0.6359999999999673 9.809330000000017,0.8530599999999708 9.809330000000017,0.8530599999999708 C 9.899410000000017,1.0158999999999594 10.008800000000008,1.1778899999999624 10.158040000000028,1.2890499999999747 L 10.290230000000037,1.552849999999978 C 10.290230000000037,1.552849999999978 10.369290000000035,1.79001999999997 10.13211000000004,1.8690799999999683 L 10.132110000000011,1.8690799999999967"/><path d="M 12.435320000000019,1.9539399999999887 C 12.40431000000001,2.2020100000000014 12.156240000000025,2.1709999999999923 12.156240000000025,2.1709999999999923 L 11.948510000000027,2.1446499999999844 C 11.581960000000038,2.077489999999983 11.22810000000004,1.9776999999999703 10.881790000000024,1.8397799999999904 C 10.881790000000024,1.8397799999999904 10.649670000000015,1.7469299999999919 10.742520000000013,1.514809999999983 C 10.835370000000012,1.282689999999974 11.06749000000002,1.3755399999999725 11.06749000000002,1.3755399999999725 C 11.381750000000011,1.501849999999962 11.704750000000018,1.5926499999999635 12.037960000000027,1.6527199999999596 L 12.218270000000018,1.67486999999997 C 12.218270000000018,1.67486999999997 12.46634000000003,1.7058799999999792 12.435330000000022,1.9539499999999634 L 12.435320000000019,1.9539399999999887"/><path d="M 14.304200000000009,0.0 C 14.480980000000017,0.17678000000000793 14.304200000000009,0.3535500000000127 14.304200000000009,0.3535500000000127 L 14.169090000000011,0.4818000000000211 C 13.654530000000022,0.8182700000000125 13.420230000000004,1.1771600000000149 13.134290000000021,1.7031200000000126 C 13.134290000000021,1.7031200000000126 13.014580000000024,1.9225900000000138 12.79510000000002,1.802880000000016 C 12.575630000000018,1.6831700000000183 12.695340000000016,1.463690000000014 12.695340000000016,1.463690000000014 C 13.02006000000003,0.8705200000000275 13.322850000000017,0.45077000000000567 13.891740000000027,0.06577000000001476 L 13.950650000000024,2.842170943040401e-14 C 13.950650000000024,2.842170943040401e-14 14.127430000000032,-0.1767799999999795 14.304200000000037,2.842170943040401e-14 L 14.304200000000009,0.0"/><path d="M 9.63861,1.8242099999999937 C 9.63861,2.0742099999999937 9.38861,2.0742099999999937 9.38861,2.0742099999999937 L 9.308570000000003,2.0742099999999937 C 9.116990000000015,2.073610000000002 8.924890000000005,2.0921400000000006 8.736009999999993,2.1241699999999923 C 8.736009999999993,2.1241699999999923 8.489409999999992,2.1652699999999925 8.448309999999992,1.9186699999999917 C 8.407209999999992,1.6720699999999908 8.653809999999993,1.6309699999999907 8.653809999999993,1.6309699999999907 C 8.869990000000001,1.5954899999999839 9.089499999999987,1.574799999999982 9.308570000000003,1.5742099999999937 L 9.38861,1.5742099999999937 C 9.38861,1.5742099999999937 9.63861,1.5742099999999937 9.63861,1.8242099999999937"/><path d="M 13.920450000000017,2.419639999999987 C 13.725240000000014,2.57580999999999 13.569060000000007,2.380599999999987 13.569060000000007,2.380599999999987 L 13.480770000000007,2.267799999999994 C 13.418520000000001,2.205549999999988 13.35626000000002,2.1432900000000075 13.294010000000014,2.0810400000000016 C 13.294010000000014,2.0810400000000016 13.11724000000001,1.9042599999999936 13.294010000000014,1.7274800000000141 C 13.470780000000019,1.5507100000000094 13.647560000000027,1.7274800000000141 13.647560000000027,1.7274800000000141 C 13.709810000000033,1.78973000000002 13.772080000000017,1.8519900000000007 13.834330000000023,1.9142400000000066 L 13.959490000000017,2.068250000000006 C 13.959490000000017,2.068250000000006 14.11566000000002,2.2634700000000123 13.920450000000017,2.4196400000000153 L 13.920450000000017,2.419639999999987"/><path d="M 3.2163400000000024,16.660259999999994 L 2.8413400000000024,16.660259999999994 C 1.6353699999999947,16.656589999999994 1.47457,14.717459999999988 2.5288400000000024,14.597759999999994 C 2.5288400000000024,14.597759999999994 2.7788400000000024,14.597759999999994 2.7788400000000024,14.847759999999994 C 2.7788400000000024,15.097759999999994 2.5288400000000024,15.097759999999994 2.5288400000000024,15.097759999999994 C 2.225189999999998,14.996409999999997 2.405540000000002,15.870720000000006 2.699540000000013,16.103999999999985 C 2.636700000000019,15.578769999999992 2.788000000000011,14.264289999999988 3.180170000000004,14.685459999999978 C 3.6546500000000037,14.157849999999968 4.6526700000000005,13.224739999999969 5.123999999999995,13.044989999999984 C 5.094040000000007,12.925999999999988 5.064920000000001,12.806929999999994 5.036550000000005,12.687879999999979 C 5.036550000000005,12.687879999999979 4.978640000000013,12.444679999999977 5.2218400000000145,12.386769999999984 C 5.229460000000017,12.384959999999978 5.236890000000017,12.383439999999979 5.244150000000019,12.382199999999983 C 5.174910000000011,12.266539999999992 5.247970000000009,12.135029999999972 5.247970000000009,12.135029999999972 L 5.407600000000002,11.856589999999983 C 5.848350000000011,11.483929999999987 6.127370000000013,11.023709999999994 6.597200000000015,10.669039999999995 C 6.597200000000015,10.669039999999995 6.797200000000004,10.51903999999999 6.947200000000009,10.719040000000007 C 6.952570000000009,10.726200000000006 6.957490000000007,10.733280000000008 6.961980000000011,10.740300000000019 C 6.98218,10.65649000000002 7.045420000000007,10.600270000000023 7.045420000000007,10.600270000000023 L 7.108260000000001,10.54442000000003 C 7.672799999999995,10.043780000000027 8.259320000000002,9.550730000000044 8.896209999999996,9.14533000000003 C 8.896209999999996,9.14533000000003 8.949309999999997,9.11154000000002 9.019180000000006,9.104510000000033 C 9.087270000000018,9.041440000000023 9.181020000000018,9.034220000000033 9.181020000000018,9.034220000000033 C 9.35614000000001,9.020850000000024 9.531770000000023,9.012370000000033 9.707420000000013,9.009950000000032 C 9.74758,8.98099000000002 9.825060000000008,8.938910000000021 9.913730000000015,8.962090000000046 C 9.936340000000001,8.85367000000005 9.96568000000002,8.746350000000035 9.998840000000001,8.640280000000047 L 9.712729999999993,8.52929000000006 C 8.924659999999989,8.374320000000068 8.409689999999983,8.22849000000005 8.030749999999983,7.479370000000074 C 8.030749999999983,7.479370000000074 7.9947199999999725,7.407310000000081 8.00446999999997,7.324560000000076 C 7.881329999999963,7.309020000000089 7.78607999999997,7.203910000000064 7.78607999999997,7.0765400000000795 L 7.786089999999973,7.0765400000000795 C 7.786089999999973,6.9384700000000805 7.898019999999974,6.8265400000000795 8.036089999999973,6.8265400000000795 C 8.174159999999972,6.8265400000000795 8.286089999999973,6.9384700000000805 8.286089999999973,7.0765400000000795 C 8.286089999999973,7.0891400000000715 8.285159999999962,7.101510000000076 8.28335999999996,7.113600000000076 C 8.413099999999957,7.126020000000068 8.477959999999968,7.255760000000066 8.477959999999968,7.255760000000066 C 8.78395999999998,7.876560000000069 9.207299999999975,7.919450000000069 9.851759999999956,8.049010000000067 L 10.187269999999955,8.177080000000075 C 10.187269999999955,8.177080000000075 10.230739999999969,8.193800000000067 10.272929999999945,8.231560000000087 C 10.309559999999948,8.226500000000101 10.352129999999931,8.230360000000076 10.401229999999941,8.248210000000086 C 10.63617999999994,8.333650000000091 10.550739999999934,8.568590000000086 10.550739999999934,8.568590000000086 C 10.466219999999936,8.79744000000008 10.387379999999922,9.034660000000088 10.371059999999943,9.278070000000099 L 10.371769999999941,9.356230000000096 C 10.371769999999941,9.356230000000096 10.371769999999941,9.599230000000091 10.132199999999955,9.606080000000105 C 10.275419999999968,9.703360000000117 10.433639999999968,9.7761900000001 10.679829999999953,9.881200000000092 L 10.860769999999945,9.945400000000092 C 10.860769999999945,9.945400000000092 11.096169999999944,10.029580000000095 11.01198999999994,10.264980000000094 C 10.927809999999937,10.500380000000092 10.692409999999938,10.416200000000089 10.692409999999938,10.416200000000089 L 10.482869999999934,10.340770000000077 C 9.956999999999937,10.11442000000008 9.725919999999945,9.96918000000008 9.332709999999935,9.551050000000089 C 9.332709999999935,9.551050000000089 9.324239999999946,9.541970000000077 9.313099999999935,9.52598000000009 C 9.281839999999931,9.528050000000093 9.250599999999935,9.530300000000096 9.219369999999941,9.5327300000001 C 9.219369999999941,9.5327300000001 9.214459999999946,9.533110000000107 9.205959999999948,9.533070000000095 C 9.183289999999943,9.555280000000096 9.164649999999938,9.567140000000109 9.164649999999938,9.567140000000109 C 8.550239999999945,9.958020000000118 7.983849999999933,10.433860000000095 7.440439999999938,10.918100000000095 L 7.377599999999944,10.973950000000087 C 7.377599999999944,10.973950000000087 7.190749999999952,11.140040000000084 7.024659999999955,10.953190000000092 L 7.024659999999955,10.953210000000098 C 7.014149999999944,10.941380000000095 7.0050499999999545,10.929640000000092 6.997219999999942,10.918010000000095 C 6.97512999999995,11.010590000000093 6.897199999999941,11.069040000000086 6.897199999999941,11.069040000000086 C 6.458169999999939,11.395920000000075 6.209999999999951,11.838230000000095 5.792239999999936,12.176040000000086 L 5.685049999999933,12.37785000000008 C 5.685049999999933,12.37785000000008 5.619649999999922,12.495580000000075 5.498439999999931,12.510210000000086 C 5.516399999999919,12.544530000000094 5.522949999999923,12.572060000000079 5.522949999999923,12.572060000000079 C 5.660929999999922,13.151980000000066 5.817349999999919,13.732630000000086 6.000719999999916,14.303060000000073 C 6.273319999999927,13.818940000000083 6.555289999999928,13.34519000000006 6.8212099999999225,12.857110000000063 C 6.8212099999999225,12.857110000000063 6.94091999999992,12.637630000000058 7.160399999999925,12.75735000000006 C 7.379869999999926,12.87707000000006 7.260159999999928,13.096540000000061 7.260159999999928,13.096540000000061 C 6.965179999999918,13.63668000000007 6.651339999999919,14.160330000000073 6.352079999999916,14.69909000000007 L 6.344029999999918,14.736780000000067 C 6.344029999999918,14.736780000000067 6.305729999999926,14.851680000000073 6.20246999999992,14.894880000000057 C 6.244609999999909,15.011450000000053 6.288029999999907,15.127400000000051 6.33280999999991,15.242660000000058 L 6.400019999999898,15.467490000000055 C 6.400019999999898,15.467490000000055 6.4707299999998895,15.707280000000054 6.230929999999887,15.777990000000045 C 5.991139999999888,15.848700000000036 5.920429999999897,15.608900000000034 5.920429999999897,15.608900000000034 L 5.866699999999895,15.423600000000022 C 5.8343899999999,15.340300000000013 5.802769999999896,15.256650000000008 5.771809999999903,15.172690000000017 C 5.314539999999909,15.690470000000005 4.217669999999913,16.294900000000013 3.4655199999999127,16.434570000000008 C 3.4498599999999158,16.660269999999997 3.2163499999999203,16.660269999999997 3.2163499999999203,16.660269999999997 L 3.2163400000000024,16.660259999999994 M 3.212200000000024,15.905840000000012 C 3.2522100000000194,16.148410000000013 5.3246400000000165,14.805470000000014 5.586870000000033,14.64494000000002 C 5.462680000000034,14.271930000000026 5.350070000000045,13.894250000000028 5.24687000000003,13.514680000000027 C 5.243120000000033,13.51338000000004 5.239420000000024,13.512000000000029 5.2357600000000275,13.510530000000017 C 4.864700000000028,14.071670000000012 3.8580100000000357,14.877760000000023 3.2834800000000257,15.061320000000023 C 3.273030000000034,15.348040000000026 3.1807100000000332,15.714910000000032 3.212200000000024,15.905840000000012"/><path d="M 14.593790000000013,14.092800000000011 C 14.730280000000022,14.064420000000013 14.86706000000001,14.037020000000012 15.003740000000022,14.009290000000021 L 14.978220000000022,13.980430000000013 C 14.84041000000002,13.761490000000009 14.703250000000025,13.54215000000002 14.566140000000019,13.32277000000002 C 14.566140000000019,13.32277000000002 14.566080000000028,13.322670000000016 14.565960000000018,13.32247000000001 C 14.545220000000029,13.33041 14.521570000000025,13.336219999999997 14.494590000000017,13.339200000000005 C 14.495030000000014,13.595349999999996 14.497750000000025,13.850979999999993 14.498700000000014,14.106110000000001 L 14.593790000000013,14.092800000000011 M 17.07074,13.924200000000013 C 16.314369999999997,14.27134000000001 15.504500000000007,14.413710000000009 14.695699999999988,14.582300000000004 L 14.49706999999998,14.611170000000016 C 14.48918999999998,15.241630000000015 14.453939999999989,15.869200000000006 14.329589999999968,16.494370000000004 L 14.204409999999967,16.702069999999992 C 14.204409999999967,16.702069999999992 14.142289999999974,16.78488999999999 14.044719999999955,16.803969999999993 C 13.98900999999995,17.03895 13.923389999999955,17.27046999999999 13.876019999999954,17.508250000000004 L 13.841369999999955,17.61832000000001 C 13.841369999999955,17.61832000000001 13.817079999999947,17.691210000000012 13.755019999999945,17.742700000000013 C 13.713409999999953,17.780840000000012 13.670369999999934,17.79806000000002 13.670369999999934,17.79806000000002 C 13.126039999999932,18.01436000000001 12.48374999999993,18.160000000000025 11.89662999999993,18.16279000000003 L 11.955079999999924,18.163080000000036 C 11.955079999999924,18.163080000000036 11.796999999999912,18.24212000000003 11.680209999999931,18.134370000000047 C 11.667649999999924,18.132880000000057 11.655379999999923,18.13047000000006 11.64345999999992,18.12719000000004 C 11.59152999999992,18.139320000000055 11.548859999999905,18.134580000000028 11.548859999999905,18.134580000000028 L 11.292889999999915,18.105620000000016 C 10.31919999999991,17.933120000000002 7.976269999999914,18.118370000000027 7.937999999999903,16.792190000000005 C 7.937999999999903,16.792190000000005 7.937999999999903,16.773570000000007 7.9430899999998985,16.74647999999999 C 7.884639999999905,16.67362 7.884639999999905,16.578749999999985 7.884639999999905,16.578749999999985 L 7.884639999999905,16.311939999999993 C 7.884639999999905,15.060479999999984 7.644519999999915,13.83166 7.644519999999915,12.576619999999991 C 7.644519999999915,12.576619999999991 7.644519999999915,12.326619999999991 7.894519999999915,12.326619999999991 C 8.144519999999915,12.326619999999991 8.144519999999915,12.576619999999991 8.144519999999915,12.576619999999991 C 8.144519999999915,13.831459999999993 8.384639999999905,15.059989999999999 8.384639999999905,16.311939999999993 L 8.384639999999905,16.578749999999985 C 8.384639999999905,16.578749999999985 8.384639999999905,16.597379999999987 8.379559999999913,16.624469999999974 C 8.438009999999906,16.697329999999965 8.438009999999906,16.79219999999998 8.438009999999906,16.79219999999998 C 8.401319999999913,17.54151999999999 10.807069999999896,17.512549999999976 11.379799999999904,17.61323999999999 L 11.6040899999999,17.63764999999998 C 11.6040899999999,17.63764999999998 11.61918999999989,17.639329999999973 11.641539999999907,17.645579999999967 C 11.663269999999898,17.639419999999973 11.686189999999897,17.636119999999977 11.709889999999916,17.636119999999977 C 11.76126999999991,17.636119999999977 11.809029999999922,17.65161999999998 11.84874999999991,17.678199999999975 L 11.896659999999912,17.662799999999976 C 12.383749999999907,17.66561999999999 12.931909999999903,17.543939999999964 13.394199999999898,17.36916999999997 C 13.4552699999999,17.077879999999965 13.541029999999893,16.79520999999997 13.599229999999892,16.503049999999973 C 13.599229999999892,16.503049999999973 13.643419999999878,16.282089999999982 13.8576699999999,16.301679999999976 C 14.043989999999894,15.299739999999986 13.9945799999999,14.287379999999985 13.9945799999999,13.270329999999973 C 13.9945799999999,13.270329999999973 13.9945799999999,13.045769999999976 14.2074199999999,13.022309999999976 L 14.189099999999911,12.765479999999968 C 14.175139999999914,12.39889999999997 14.096649999999897,12.04526999999996 14.068189999999902,11.679399999999958 C 14.068189999999902,11.679399999999958 14.0490199999999,11.430139999999966 14.298279999999892,11.41095999999996 C 14.547539999999884,11.391789999999958 14.56671999999989,11.64104999999995 14.56671999999989,11.64104999999995 C 14.594789999999904,12.010509999999954 14.672869999999904,12.367249999999956 14.688329999999894,12.737669999999952 L 14.7034799999999,12.94954999999996 C 14.881499999999903,12.883879999999948 14.990199999999902,13.057789999999954 14.990199999999902,13.057789999999954 C 15.119899999999916,13.265309999999943 15.249629999999911,13.472809999999953 15.378549999999905,13.680809999999951 L 15.565399999999897,13.889769999999942 C 15.943799999999896,13.802959999999928 16.317299999999904,13.699479999999937 16.67754999999991,13.55072999999993 C 16.595479999999924,12.996979999999922 16.451259999999905,12.483079999999944 16.30346999999992,11.942229999999938 L 16.293009999999924,11.936379999999929 C 15.725419999999929,11.43184999999994 15.306139999999914,11.320139999999924 14.634839999999912,11.101879999999937 C 14.6235199999999,11.135789999999929 14.602319999999906,11.171109999999942 14.566989999999919,11.20643999999993 C 14.390209999999911,11.383219999999937 14.213439999999906,11.20643999999993 14.213439999999906,11.20643999999993 L 14.002859999999913,10.99413999999993 C 13.736939999999919,10.592769999999945 13.614129999999903,10.60507999999993 13.1377599999999,10.57585999999992 C 13.1377599999999,10.57585999999992 13.10787999999991,10.573989999999924 13.069449999999904,10.561209999999932 C 13.042669999999902,10.570999999999941 13.013749999999902,10.576349999999934 12.983589999999907,10.576349999999934 C 12.977429999999913,10.576349999999934 12.971319999999906,10.576129999999921 12.965269999999919,10.575689999999923 C 12.865909999999928,10.594089999999937 12.77660999999992,10.537269999999921 12.77660999999992,10.537269999999921 C 12.754569999999916,10.52200999999991 12.732529999999912,10.506749999999926 12.71049999999991,10.491489999999914 C 12.664689999999922,10.543519999999916 12.597579999999908,10.576359999999909 12.522799999999904,10.576359999999909 C 12.494389999999896,10.576359999999909 12.4670899999999,10.57161999999991 12.441649999999896,10.562889999999896 C 12.375379999999893,10.600609999999904 12.304529999999886,10.600609999999904 12.304529999999886,10.600609999999904 L 12.231769999999898,10.600609999999904 C 11.9909999999999,10.600279999999913 11.74982999999989,10.617009999999908 11.510959999999898,10.647179999999906 C 11.510959999999898,10.647179999999906 11.262889999999885,10.678189999999915 11.231879999999904,10.430119999999903 C 11.200869999999895,10.18204999999989 11.448939999999908,10.15103999999991 11.448939999999908,10.15103999999991 C 11.59847999999991,10.132529999999917 11.748799999999903,10.118709999999908 11.899379999999894,10.1102699999999 L 11.8698499999999,9.981779999999901 C 11.793959999999913,9.754239999999896 11.708559999999892,9.52964999999989 11.6139399999999,9.3092299999999 C 11.6139399999999,9.3092299999999 11.5315599999999,9.116999999999905 11.693309999999911,9.008829999999904 C 11.664279999999906,8.895929999999908 11.7407299999999,8.793989999999894 11.7407299999999,8.793989999999894 L 11.844919999999888,8.662359999999893 C 12.128209999999882,8.403699999999901 12.350699999999875,8.103279999999899 12.580499999999887,7.820529999999906 C 12.580499999999887,7.796149999999898 12.580499999999887,7.771779999999893 12.580499999999887,7.747399999999914 C 12.580499999999887,7.747399999999914 12.580499999999887,7.53006999999991 12.783129999999886,7.500679999999903 C 12.713909999999885,7.426719999999904 12.713909999999885,7.320509999999899 12.713909999999885,7.320509999999899 L 12.714089999999885,7.036609999999911 C 12.689959999999871,6.7195099999999 12.631829999999894,6.418869999999913 12.583409999999873,6.104519999999923 C 12.583409999999873,6.104519999999923 12.545399999999859,5.857429999999937 12.792489999999873,5.81940999999992 C 12.879219999999862,5.80606999999992 12.940189999999859,5.827849999999927 12.982799999999884,5.861739999999912 C 12.982389999999896,5.856869999999901 12.981989999999882,5.851999999999919 12.981579999999894,5.847129999999908 C 12.981579999999894,5.847129999999908 12.98072999999988,5.8368999999999005 12.981439999999907,5.820419999999899 C 12.92739999999992,5.778759999999892 12.900389999999902,5.724719999999905 12.900389999999902,5.724719999999905 L 12.8421799999999,5.607729999999918 C 12.788709999999895,5.487409999999926 12.734719999999896,5.367309999999918 12.681519999999892,5.246919999999932 C 12.671999999999883,5.263449999999921 12.659999999999883,5.2802799999999195 12.6450999999999,5.297299999999922 C 12.639139999999912,5.304109999999923 12.633149999999887,5.310459999999921 12.627129999999909,5.316369999999921 C 12.620409999999907,5.556149999999917 12.377269999999896,5.556149999999917 12.377269999999896,5.556149999999917 L 12.099169999999901,5.555899999999923 C 12.060689999999909,5.552359999999936 12.022489999999891,5.548439999999914 11.984499999999912,5.544229999999914 C 12.024709999999914,5.664869999999922 12.064929999999919,5.785509999999903 12.10513999999992,5.906159999999915 L 12.12447999999992,5.919299999999907 C 12.12447999999992,5.919299999999907 12.263159999999914,6.127309999999909 12.05513999999991,6.265989999999903 L 12.055149999999912,6.265989999999903 C 11.84713999999991,6.404669999999896 11.708459999999917,6.196649999999892 11.708459999999917,6.196649999999892 L 11.630799999999908,6.064279999999883 C 11.582289999999915,5.918769999999881 11.533789999999897,5.7732499999998765 11.485289999999907,5.627739999999875 C 11.485289999999907,5.627739999999875 11.461399999999912,5.556069999999863 11.479279999999903,5.478389999999877 C 11.3458499999999,5.46072999999987 11.211339999999893,5.444619999999873 11.072729999999893,5.434159999999878 C 11.072729999999893,5.434159999999878 10.823469999999901,5.414989999999875 10.842639999999903,5.1657199999998795 C 10.861809999999906,4.916449999999884 11.111079999999902,4.93562999999989 11.111079999999902,4.93562999999989 C 11.421589999999895,4.959949999999878 11.710629999999895,5.012759999999901 12.013229999999908,5.0456199999999 C 11.9904599999999,4.999499999999898 11.976099999999917,4.938589999999891 12.000619999999913,4.870839999999902 C 11.873119999999915,4.9549799999998925 11.73129999999992,4.8604399999998975 11.73129999999992,4.8604399999998975 L 11.601789999999909,4.763689999999912 C 11.424879999999916,4.546389999999917 11.151349999999923,4.457639999999913 10.876569999999901,4.372809999999902 L 10.82537999999991,4.394459999999896 C 10.604899999999901,4.413769999999886 10.387179999999915,4.462929999999886 10.17345999999992,4.520449999999897 C 10.17345999999992,4.520449999999897 9.985609999999923,4.570539999999909 9.897039999999919,4.416719999999884 C 9.840139999999906,4.426699999999897 9.793199999999928,4.417309999999873 9.793199999999928,4.417309999999873 L 9.514919999999933,4.36136999999988 C 9.027649999999937,4.215579999999875 8.651889999999923,4.103169999999892 8.245289999999926,3.7803999999998723 C 8.245289999999926,3.7803999999998723 8.203059999999937,3.746609999999862 8.173589999999933,3.6908299999998633 C 8.14927999999992,3.7041699999998627 8.119989999999945,3.7146999999998513 8.084739999999925,3.7210799999998585 C 7.9860199999999395,3.7389599999998495 7.919739999999933,3.71003999999985 7.875769999999932,3.669019999999847 C 7.904139999999927,3.7378299999998603 7.896579999999943,3.805839999999847 7.896579999999943,3.805839999999847 C 7.803279999999944,4.638699999999858 7.956689999999952,5.3523099999998465 8.104439999999954,6.163779999999861 L 8.160149999999959,6.446079999999853 C 8.160149999999959,6.446079999999853 8.208549999999946,6.691349999999858 7.963279999999969,6.7397499999998445 L 7.963289999999972,6.739759999999848 C 7.718019999999967,6.788159999999834 7.669619999999981,6.542889999999858 7.669619999999981,6.542889999999858 L 7.613189999999975,6.256909999999863 C 7.456959999999981,5.396409999999861 7.3021899999999675,4.634479999999854 7.399639999999977,3.750629999999859 C 7.399639999999977,3.750629999999859 7.4226199999999665,3.5438399999998467 7.6152899999999875,3.5285099999998693 C 7.578869999999995,3.491479999999882 7.551709999999986,3.436229999999881 7.551709999999986,3.353819999999871 C 7.551709999999986,3.1693999999998823 7.687749999999994,3.1210199999998736 7.759119999999996,3.1083299999998815 C 7.770839999999993,2.963549999999884 7.781900000000007,2.818719999999871 7.792049999999989,2.6738199999998926 C 7.61739,2.583229999999901 7.680299999999988,2.381909999999891 7.680299999999988,2.381909999999891 C 7.89758999999998,1.6868699999998853 8.193639999999988,0.7961199999998883 8.712229999999977,0.2667699999998945 L 8.96175999999997,0.1935499999999024 C 8.96175999999997,0.1935499999999024 9.21175999999997,0.1935499999999024 9.21175999999997,0.4435499999999024 L 9.211779999999976,0.4435599999999056 C 9.211779999999976,0.6330899999998962 9.068089999999984,0.6789299999998946 8.998579999999976,0.6900199999999188 C 8.655929999999984,1.0676699999999073 8.435089999999974,1.662009999999924 8.267459999999971,2.181819999999931 C 8.31944999999996,2.257489999999933 8.314009999999968,2.3499099999999373 8.314009999999968,2.3499099999999373 C 8.29932999999997,2.5991999999999393 8.281489999999962,2.8483199999999442 8.261619999999965,3.097259999999949 C 8.933149999999955,3.0794299999999453 9.603009999999955,3.0314199999999403 10.275439999999975,3.031069999999943 L 10.566469999999981,3.031069999999943 C 10.566469999999981,3.031069999999943 10.631219999999985,3.031069999999943 10.694819999999993,3.0640199999999425 C 11.616240000000005,3.0245999999999356 12.57147999999998,2.748179999999934 13.524219999999985,2.748179999999934 L 13.577579999999983,2.748179999999934 C 13.577579999999983,2.748179999999934 13.749059999999986,2.748179999999934 13.807979999999986,2.890199999999936 C 13.843919999999997,2.8419099999999275 13.904019999999974,2.8015399999999318 14.004469999999998,2.8015399999999318 C 14.021410000000003,2.8015399999999318 14.037199999999984,2.8026899999999273 14.051929999999999,2.8048299999999244 C 14.140070000000009,2.0899299999999243 14.168530000000004,1.3466899999999384 14.168530000000004,0.6375799999999288 C 14.168530000000004,0.6375799999999288 14.168530000000004,0.38757999999992876 14.418530000000004,0.38757999999992876 C 14.668530000000004,0.38757999999992876 14.668530000000004,0.6375799999999288 14.668530000000004,0.6375799999999288 C 14.668530000000004,1.5447099999999239 14.617649999999998,2.5008299999999224 14.47111000000001,3.394929999999931 L 14.47451000000001,3.4750899999999376 C 14.47451000000001,3.4750899999999376 14.47451000000001,3.686529999999948 14.28006000000002,3.7205099999999334 C 14.28024000000002,3.7232099999999377 14.28042000000002,3.7259199999999453 14.280600000000021,3.728619999999921 L 14.281150000000025,3.878649999999908 C 14.281150000000025,3.878649999999908 14.281150000000025,4.128649999999908 14.031150000000025,4.128649999999908 C 14.022420000000011,4.128649999999908 14.013990000000035,4.128339999999895 14.005850000000038,4.12775999999991 C 14.009670000000028,4.150899999999922 14.009670000000028,4.166289999999918 14.009670000000028,4.166289999999918 C 14.009660000000025,4.204589999999911 14.009520000000037,4.242979999999932 14.009240000000034,4.281429999999915 C 14.061830000000043,4.323549999999926 14.106510000000043,4.394159999999914 14.087110000000024,4.510529999999903 C 14.074180000000013,4.588139999999896 14.040890000000019,4.637249999999909 14.001340000000027,4.668119999999902 C 13.994370000000032,4.868119999999891 13.982550000000032,5.068759999999912 13.964050000000015,5.268199999999894 C 14.089360000000028,5.3139099999999075 14.116780000000006,5.460109999999901 14.116780000000006,5.460109999999901 C 14.253199999999993,6.187669999999912 14.365470000000016,6.91834999999989 14.516050000000007,7.643179999999887 L 14.521270000000015,7.907469999999876 C 14.521270000000015,7.907469999999876 14.521270000000015,8.157469999999876 14.271270000000015,8.157469999999876 L 14.271260000000012,8.157489999999882 C 14.021260000000012,8.157489999999882 14.021260000000012,7.907489999999882 14.021260000000012,7.907489999999882 L 14.02648000000002,7.744879999999881 C 13.993590000000012,7.586469999999878 13.962500000000034,7.427789999999874 13.93258000000003,7.2689299999998696 C 13.899670000000043,7.38058999999987 13.782070000000033,7.429009999999863 13.782070000000033,7.429009999999863 C 13.506640000000033,7.538499999999857 13.284550000000024,7.737189999999856 13.080490000000026,7.969049999999868 C 13.080490000000026,8.04635999999988 13.080490000000026,8.123669999999862 13.080490000000026,8.200979999999873 L 13.040980000000019,8.360079999999869 C 13.040980000000019,8.360079999999869 12.96192000000002,8.59724999999986 12.724750000000029,8.518189999999862 C 12.701040000000035,8.510289999999856 12.680500000000023,8.50080999999986 12.662720000000036,8.490139999999855 C 12.512150000000048,8.682589999999863 12.357500000000044,8.871279999999842 12.18282000000005,9.030909999999864 C 12.168980000000062,9.084509999999852 12.137820000000062,9.131139999999874 12.095650000000063,9.164469999999852 C 12.184740000000062,9.376479999999844 12.26550000000006,9.592129999999855 12.338990000000052,9.810039999999844 C 12.360570000000052,9.755519999999848 12.40662000000006,9.702459999999832 12.499460000000056,9.67460999999983 C 12.738920000000064,9.602769999999822 12.81075000000007,9.84222999999983 12.81075000000007,9.84222999999983 L 12.843410000000063,10.005739999999832 C 12.88680000000005,10.02933999999982 12.930180000000064,10.05294999999984 12.973570000000052,10.076549999999827 C 12.976890000000054,10.076419999999814 12.980230000000063,10.07634999999982 12.983580000000046,10.07634999999982 C 13.013120000000043,10.07634999999982 13.041460000000058,10.081469999999825 13.067770000000053,10.090879999999828 C 13.122120000000052,10.073909999999842 13.168940000000049,10.076839999999834 13.168940000000049,10.076839999999834 C 13.74001000000004,10.113139999999845 14.039760000000058,10.169419999999832 14.371720000000039,10.650949999999824 C 14.47156000000004,10.521109999999823 14.643820000000034,10.57852999999983 14.643820000000034,10.57852999999983 C 15.45222000000004,10.848419999999834 15.972300000000047,10.982339999999823 16.625190000000032,11.56267999999983 L 16.677630000000022,11.579289999999816 C 16.677630000000022,11.579289999999816 16.87784000000002,11.679399999999816 16.80463000000003,11.879619999999818 C 16.95944000000003,12.447219999999817 17.107560000000035,12.990899999999812 17.186470000000043,13.579009999999812 C 17.186810000000037,13.57965999999982 17.187140000000056,13.580319999999801 17.187470000000047,13.580979999999812 L 17.189640000000054,13.558759999999808 C 17.189640000000054,13.558759999999808 17.212980000000044,13.605439999999817 17.217010000000045,13.6668099999998 C 17.248020000000054,13.842439999999812 17.070800000000048,13.924239999999799 17.070800000000048,13.924239999999799 L 17.07074,13.924200000000013 M 10.312270000000012,3.8735599999999977 C 10.335910000000013,3.826279999999997 10.364540000000005,3.794000000000011 10.395010000000013,3.7724800000000016 C 10.380720000000025,3.7669400000000053 10.366480000000024,3.761330000000015 10.352310000000017,3.755660000000006 C 10.352310000000017,3.755660000000006 10.188260000000014,3.6900400000000104 10.191150000000022,3.531220000000019 C 9.737120000000033,3.5336300000000165 9.284190000000024,3.556820000000016 8.831020000000024,3.576340000000016 C 9.079120000000017,3.716160000000002 9.328810000000033,3.78382000000002 9.635870000000011,3.8761900000000082 L 9.891210000000001,3.9269800000000146 C 9.891210000000001,3.9269800000000146 9.99857,3.9484500000000082 10.05698000000001,4.034020000000027 C 10.131430000000023,4.014450000000039 10.206290000000024,3.995880000000028 10.28152,3.9789000000000385 C 10.283760000000001,3.9470900000000313 10.29307,3.911970000000025 10.312279999999987,3.873560000000026 L 10.312270000000012,3.8735599999999977 M 12.408090000000016,4.7577400000000125 L 12.510100000000023,4.847000000000008 C 12.44401000000002,4.685879999999997 12.381790000000024,4.523250000000019 12.326480000000032,4.357910000000004 C 12.326480000000032,4.357910000000004 12.313540000000046,4.319080000000014 12.313840000000027,4.267600000000016 C 12.034250000000014,4.203900000000004 11.747830000000022,4.14533000000003 11.46535000000003,4.081030000000027 C 11.648200000000031,4.160300000000035 11.82143000000002,4.263450000000034 11.978030000000018,4.434410000000014 L 12.00860000000003,4.444390000000027 C 12.00860000000003,4.444390000000027 12.177830000000029,4.557210000000026 12.109250000000031,4.731970000000018 C 12.258410000000026,4.626780000000025 12.408090000000044,4.7577400000000125 12.408090000000044,4.7577400000000125 L 12.408090000000016,4.7577400000000125 M 13.680000000000007,6.217449999999985 C 13.680000000000007,6.217449999999985 13.61017000000001,6.264009999999985 13.524460000000005,6.2627099999999984 C 13.603939999999994,6.303210000000007 13.643670000000014,6.3826799999999935 13.643670000000014,6.3826799999999935 C 13.708340000000021,6.5120299999999816 13.773020000000002,6.641369999999995 13.83769000000001,6.770719999999983 L 13.849550000000022,6.813839999999971 C 13.810540000000032,6.594299999999976 13.772600000000011,6.37457999999998 13.734020000000015,6.154909999999973 L 13.680000000000007,6.217449999999985 M 13.310690000000022,7.090219999999988 C 13.272940000000034,7.090219999999988 13.24090000000001,7.084519999999998 13.213690000000014,7.074839999999995 L 13.213760000000008,7.1818099999999845 C 13.259370000000018,7.148549999999972 13.30659,7.116969999999981 13.35566,7.087279999999993 C 13.341649999999987,7.089200000000005 13.32668000000001,7.090219999999988 13.310689999999994,7.090219999999988 L 13.310690000000022,7.090219999999988 M 13.503030000000024,4.631679999999989 C 13.307650000000024,4.544479999999993 13.096090000000032,4.472379999999987 12.874620000000021,4.409059999999982 C 13.000400000000013,4.746879999999976 13.15246000000002,5.07493999999997 13.299020000000013,5.404649999999975 L 13.34754000000001,5.50109999999998 C 13.34754000000001,5.50109999999998 13.372479999999996,5.550969999999978 13.37524000000002,5.615389999999991 C 13.390810000000016,5.626239999999996 13.404100000000028,5.638710000000003 13.415420000000012,5.6519600000000025 C 13.467410000000001,5.317430000000002 13.49248,4.973090000000013 13.503030000000024,4.631689999999992 L 13.503030000000024,4.631679999999989 M 13.781080000000003,3.87863999999999 L 13.781630000000007,3.7618699999999876 C 13.768799999999999,3.5684699999999907 13.758810000000011,3.3747299999999996 13.755539999999996,3.180919999999986 C 13.68168,3.2481699999999876 13.577499999999986,3.2481699999999876 13.577499999999986,3.2481699999999876 L 13.524139999999989,3.2481699999999876 C 12.734769999999997,3.2481699999999876 11.967959999999977,3.4215099999999836 11.204889999999978,3.5131899999999803 C 11.978729999999985,3.7292099999999664 12.800119999999964,3.8487799999999766 13.51760999999999,4.10663999999997 C 13.534819999999996,4.032689999999974 13.588999999999999,3.916279999999972 13.759599999999978,3.916279999999972 C 13.768329999999992,3.916279999999972 13.776759999999967,3.916589999999985 13.784899999999965,3.9171699999999703 C 13.781079999999974,3.894029999999958 13.781079999999974,3.8786399999999617 13.781079999999974,3.8786399999999617 L 13.781080000000003,3.87863999999999"/><g><path d="M 2.9565600000000245,14.447309999999987 C 2.9622600000000148,14.582249999999988 2.821940000000012,14.60526999999999 2.821940000000012,14.60526999999999 C 1.5696300000000178,14.810639999999978 0.2576400000000092,14.803679999999986 0.0,13.248919999999998 C -0.08129999999999882,12.40655000000001 0.32273000000000707,11.759160000000008 0.5010200000000111,10.953939999999989 C 0.5318200000000104,10.81483 0.5460199999999986,10.326579999999979 0.695840000000004,10.266599999999983 C 1.0305800000000147,10.132589999999993 1.674650000000014,10.972879999999975 1.780079999999998,11.208619999999996 C 1.9213599999999929,11.450079999999986 2.826830000000001,11.360389999999995 3.0380099999999857,11.08019999999999 C 3.176889999999986,10.89591999999999 3.144619999999975,9.953630000000004 3.4429199999999867,9.904889999999995 C 3.7968999999999937,9.847049999999996 4.303299999999979,10.605829999999997 4.4713999999999885,10.825140000000005 C 4.625689999999992,11.193280000000016 4.919659999999993,11.155249999999995 5.147189999999995,11.538510000000002 C 5.856419999999986,12.733190000000008 4.82217,13.41171 3.886089999999996,13.979180000000014 C 3.57996,14.169910000000016 3.307389999999998,14.367700000000013 2.9565699999999993,14.447310000000016 L 2.9565600000000245,14.447309999999987 M 2.666060000000016,14.306430000000006 C 2.662530000000004,14.174110000000013 2.8007900000000063,14.151440000000008 2.8007900000000063,14.151440000000008 L 2.8267299999999977,14.14718000000002 C 3.1698399999999936,14.093470000000025 3.4302999999999884,13.886440000000022 3.7188500000000033,13.706550000000021 C 3.9861899999999935,13.545970000000011 5.026280000000014,12.965240000000023 5.071230000000014,12.668680000000023 C 5.214080000000024,11.726180000000028 4.447120000000012,11.61808000000002 4.194730000000021,10.985620000000011 C 4.075810000000018,10.836219999999997 3.54406000000003,10.395700000000005 3.533450000000016,10.211630000000014 C 3.5252200000000187,10.068910000000017 3.5164000000000044,10.499490000000009 3.4759900000000243,10.636610000000019 C 3.4233300000000213,10.815320000000014 3.410160000000019,11.12814000000003 3.2928900000000283,11.273360000000025 C 2.9187700000000234,11.736670000000032 1.7638200000000381,11.812380000000019 1.4947200000000294,11.35307000000003 C 1.4580500000000427,11.26412000000002 1.0271400000000313,10.815420000000017 0.8782800000000179,10.633430000000033 C 0.8717700000000264,10.74726000000004 0.8330500000000143,10.933770000000038 0.8131700000000137,11.023510000000044 C 0.7587500000000205,11.269170000000031 0.7514400000000023,11.522060000000039 0.6934900000000255,11.766700000000043 C 0.5556500000000142,12.348630000000043 0.2517700000000218,12.526770000000056 0.3171400000000233,13.207700000000045 C 0.5310200000000123,14.528710000000046 1.6324500000000342,14.469460000000055 2.666060000000016,14.306430000000034 L 2.666060000000016,14.306430000000006"/><path d="M 2.220390000000009,12.898570000000007 C 2.127100000000013,13.028459999999995 1.9972199999999987,12.93517 1.9972199999999987,12.93517 L 1.9259500000000003,12.869159999999994 C 1.8527899999999988,12.751779999999997 1.679000000000002,12.58256 1.5896999999999935,12.438659999999999 C 1.5257100000000037,12.643810000000002 1.4590299999999843,12.838490000000007 1.34957,13.029410000000013 C 1.34957,13.029410000000013 1.269679999999994,13.167940000000016 1.131149999999991,13.088040000000007 C 0.9926299999999912,13.008139999999997 1.0725199999999973,12.869619999999998 1.0725199999999973,12.869619999999998 C 1.1870600000000024,12.672390000000007 1.2456999999999994,12.46878000000001 1.3136399999999924,12.252109999999988 L 1.334939999999989,12.096429999999998 C 1.3427999999999827,12.02709999999999 1.3957299999999861,11.968559999999997 1.467979999999983,11.956709999999987 C 1.5277299999999912,11.946909999999974 1.5851699999999767,11.971599999999995 1.619989999999973,12.016169999999988 L 1.7455699999999865,12.170919999999995 L 1.7401199999999903,12.175340000000006 C 1.916419999999988,12.319970000000012 2.054699999999997,12.471100000000007 2.197369999999978,12.700009999999992 L 2.1837799999999845,12.675420000000003 C 2.1837799999999845,12.675420000000003 2.3136699999999735,12.768709999999999 2.2203799999999774,12.898590000000013 L 2.220390000000009,12.898570000000007"/><path d="M 4.1591999999999985,12.619769999999988 C 4.01767000000001,12.694229999999976 3.94323,12.552699999999987 3.94323,12.552699999999987 L 3.90458000000001,12.479129999999998 C 3.539170000000013,11.73060000000001 3.402460000000019,11.796519999999987 3.3232300000000237,12.619439999999997 C 3.3232300000000237,12.619439999999997 3.3075700000000268,12.778580000000005 3.148430000000019,12.762930000000011 C 2.989290000000011,12.747270000000015 3.004940000000005,12.588130000000007 3.004940000000005,12.588130000000007 C 3.022030000000001,12.417650000000009 3.146729999999991,11.555120000000016 3.412200000000013,11.523539999999997 C 3.6769000000000176,11.492050000000006 4.088870000000014,12.134050000000002 4.191020000000009,12.336839999999995 L 4.226290000000006,12.403779999999983 C 4.226290000000006,12.403779999999983 4.300749999999994,12.545309999999972 4.159220000000005,12.619759999999985 L 4.1591999999999985,12.619769999999988"/></g></g></g></svg>